# Blender v2.79 (sub 0) OBJ File: 'Human.blend'
# www.blender.org
o Body_Cube.002
v 0.850000 2.500000 0.850000
v 0.850000 5.500000 0.850000
v -0.850000 2.500000 0.850000
v -0.850000 5.500000 0.850000
v 0.850000 2.500000 -0.850000
v 0.850000 5.500000 -0.850000
v -0.850000 2.500000 -0.850000
v -0.850000 5.500000 -0.850000
vt 0.333333 0.000000
vt 0.666667 0.500000
vt 0.333333 0.500000
vt 0.000000 0.000000
vt 0.333333 0.500000
vt 0.000000 0.500000
vt 0.666667 0.000000
vt 1.000000 0.500000
vt 0.666667 0.500000
vt 0.000000 0.500000
vt 0.333333 1.000000
vt 0.000000 1.000000
vt 1.000000 0.783333
vt 0.666667 0.783333
vt 0.666667 0.783333
vt 0.333333 0.500000
vt 0.666667 0.500000
vt 0.666667 0.000000
vt 0.333333 0.000000
vt 1.000000 0.000000
vt 0.333333 0.500000
vt 0.333333 0.783333
vn 0.0000 0.0000 1.0000
vn -1.0000 0.0000 0.0000
vn 0.0000 0.0000 -1.0000
vn 1.0000 0.0000 0.0000
vn 0.0000 -1.0000 0.0000
vn 0.0000 1.0000 0.0000
s off
f 2/1/1 3/2/1 1/3/1
f 4/4/2 7/5/2 3/6/2
f 8/7/3 5/8/3 7/9/3
f 6/10/4 1/11/4 5/12/4
f 7/9/5 1/13/5 3/14/5
f 4/15/6 6/16/6 8/17/6
f 2/1/1 4/18/1 3/2/1
f 4/4/2 8/19/2 7/5/2
f 8/7/3 6/20/3 5/8/3
f 6/10/4 2/21/4 1/11/4
f 7/9/5 5/8/5 1/13/5
f 4/15/6 2/22/6 6/16/6
