# Blender v2.79 (sub 0) OBJ File: 'Fish.blend'
# www.blender.org
o Body_Cube.001
v -0.090418 -0.513830 -0.307337
v 0.090418 -0.513830 -0.307337
v -0.090418 -0.465713 0.229571
v 0.090418 -0.465713 0.229571
v 0.090418 0.536888 -0.307337
v -0.090418 0.536888 -0.307337
v 0.090418 0.488771 0.229571
v -0.090418 0.488771 0.229571
v 0.237615 -0.210711 0.913016
v 0.237615 0.210711 0.913016
v 0.111988 -0.692025 1.415831
v 0.111988 0.692025 1.415831
v -0.237615 -0.210711 0.913016
v -0.237615 0.210711 0.913016
v -0.111988 -0.692025 1.415831
v -0.111988 0.692025 1.415831
v -0.254662 0.184151 0.835648
v -0.436761 0.171782 -0.835648
v -0.175348 0.436761 -0.835648
v -0.401738 0.304272 -0.835648
v -0.306054 0.401260 -0.835648
v -0.175348 0.310456 0.622520
v -0.436761 0.045478 0.622520
v -0.306054 0.274956 0.622520
v -0.401738 0.177967 0.622520
v 0.158510 0.436761 -0.835648
v 0.436761 0.154714 -0.835648
v 0.297635 0.398974 -0.835648
v 0.399482 0.295737 -0.835648
v 0.436761 0.028410 0.622520
v 0.158510 0.310456 0.622520
v 0.254678 0.184162 0.835629
v 0.399482 0.169433 0.622520
v 0.297635 0.272669 0.622520
v -0.137945 -0.436761 -0.835648
v -0.436761 -0.133869 -0.835648
v -0.287353 -0.396181 -0.835648
v -0.396727 -0.285315 -0.835648
v -0.436761 -0.007564 0.622520
v -0.137945 -0.310456 0.622520
v -0.254678 -0.184162 0.835629
v -0.396727 -0.159010 0.622520
v -0.287353 -0.269876 0.622520
v 0.436761 -0.145774 -0.835648
v 0.149690 -0.436761 -0.835648
v 0.398300 -0.291267 -0.835648
v 0.293225 -0.397776 -0.835648
v 0.149690 -0.310456 0.622520
v 0.436761 -0.019470 0.622520
v 0.254678 -0.184162 0.835629
v 0.293225 -0.271471 0.622520
v 0.398300 -0.164963 0.622520
v -0.151493 0.377818 -0.927236
v -0.264365 0.347162 -0.927236
v -0.346992 0.263407 -0.927236
v -0.377236 0.148996 -0.927236
v 0.256952 0.345187 -0.927236
v 0.136810 0.377818 -0.927236
v 0.344902 0.256037 -0.927236
v 0.377094 0.134257 -0.927236
v -0.248215 -0.341469 -0.927236
v -0.119193 -0.376512 -0.927236
v -0.342665 -0.245731 -0.927236
v -0.377236 -0.114950 -0.927236
v 0.129194 -0.376512 -0.927236
v 0.253144 -0.342847 -0.927236
v 0.343882 -0.250871 -0.927236
v 0.377094 -0.125231 -0.927236
v -0.038609 0.098897 -1.361821
v -0.067085 0.091162 -1.361821
v -0.087931 0.070032 -1.361821
v -0.095561 0.041168 -1.361821
v 0.064437 0.090664 -1.361821
v 0.034127 0.098897 -1.361821
v 0.086626 0.068173 -1.361821
v 0.094747 0.037449 -1.361821
v -0.063010 -0.082571 -1.361821
v -0.030460 -0.091412 -1.361821
v -0.086839 -0.058417 -1.361821
v -0.095561 -0.025423 -1.361821
v 0.032205 -0.091412 -1.361821
v 0.063476 -0.082918 -1.361821
v 0.086368 -0.059714 -1.361821
v 0.094747 -0.028017 -1.361821
v 0.090418 0.408233 -0.506302
v -0.090418 0.408233 -0.506302
v -0.090418 0.332503 0.367990
v 0.090418 0.332503 0.367990
v -0.090418 -0.405509 -0.474856
v -0.090418 -0.391199 -0.309646
v 0.090418 -0.405509 -0.474856
v 0.090418 -0.334419 0.345868
v -0.090418 -0.334419 0.345868
vt 0.952646 0.198508
vt 0.909169 0.347527
vt 0.909169 0.198508
vt 0.952646 0.347527
vt 0.909173 0.388409
vt 0.909173 0.160729
vt 0.952650 0.160730
vt 0.783318 0.416505
vt 0.739839 0.267548
vt 0.783316 0.267548
vt 0.783308 0.219226
vt 0.739841 0.416505
vt 0.783312 0.461662
vt 0.739834 0.461662
vt 0.217040 0.626104
vt 0.000000 0.767665
vt 0.115720 0.626104
vt 0.665521 0.616297
vt 0.719371 1.000000
vt 0.665521 1.000000
vt 0.332761 0.747718
vt 0.549800 0.604042
vt 0.665521 0.747718
vt 0.454866 0.582083
vt 0.543418 0.582077
vt 0.608526 0.747718
vt 0.524473 0.881154
vt 0.554677 0.747718
vt 0.084053 0.767665
vt 0.000000 0.901101
vt 0.030204 0.767665
vt 0.210658 0.604362
vt 0.988043 0.000002
vt 0.869684 0.019955
vt 0.873786 0.000000
vt 0.704443 0.616297
vt 0.822797 0.596405
vt 0.818700 0.616297
vt 0.723464 0.532242
vt 0.803732 0.532242
vt 0.488192 0.512845
vt 0.531350 0.119762
vt 0.500945 0.512845
vt 0.964077 0.083983
vt 0.894922 0.083982
vt 0.739830 0.219226
vt 0.835155 0.533909
vt 0.433034 0.521304
vt 0.456342 0.515111
vt 0.835149 0.129567
vt 0.426013 0.122028
vt 0.457863 0.119762
vt 0.161699 0.541765
vt 0.122103 0.604362
vt 0.173211 0.541765
vt 0.207116 0.542517
vt 0.665521 0.538864
vt 0.690013 0.534016
vt 0.700338 0.596399
vt 0.690007 0.129675
vt 0.723458 0.127901
vt 0.231937 0.544572
vt 0.237483 0.139338
vt 0.262304 0.141392
vt 0.203577 0.138586
vt 0.463351 0.098924
vt 0.526810 0.098924
vt 0.537361 0.515436
vt 0.564027 0.522514
vt 1.000000 0.082137
vt 0.992147 0.019957
vt 1.000000 0.486652
vt 0.964077 0.488498
vt 0.567765 0.122353
vt 0.594432 0.129431
vt 0.860414 0.082207
vt 0.835155 0.077360
vt 0.126719 0.542541
vt 0.860414 0.486723
vt 0.101112 0.544661
vt 0.096352 0.139361
vt 0.131332 0.138586
vt 0.959571 0.510803
vt 0.923183 0.616675
vt 0.899853 0.510802
vt 0.106064 0.115136
vt 0.136272 0.114466
vt 0.990592 0.509209
vt 0.332761 0.943514
vt 0.365931 0.954759
vt 0.356142 0.969967
vt 0.332912 0.776151
vt 0.367246 0.762938
vt 0.345870 0.787389
vt 0.198659 0.114466
vt 0.435847 0.100881
vt 0.227938 0.115115
vt 0.497890 0.968129
vt 0.511293 0.926914
vt 0.524473 0.937722
vt 0.894922 0.488497
vt 0.870053 0.509270
vt 0.558257 0.101161
vt 0.699784 0.107176
vt 0.728671 0.105644
vt 0.498796 0.747718
vt 0.511293 0.787920
vt 0.489120 0.762835
vt 0.797986 0.105644
vt 0.803726 0.127901
vt 0.825122 0.107083
vt 0.405231 0.848975
vt 0.435704 0.832073
vt 0.435207 0.884834
vt 0.488337 0.953171
vt 0.448925 0.875767
vt 0.345740 0.931916
vt 0.412252 0.882792
vt 0.513261 0.000564
vt 0.482378 0.000494
vt 0.489317 0.000000
vt 0.505327 0.000000
vt 0.746053 0.000387
vt 0.753341 0.000000
vt 0.915665 0.616289
vt 0.412584 0.834398
vt 0.407191 0.840566
vt 0.448925 0.840700
vt 0.443331 0.834372
vt 0.182771 0.000164
vt 0.152023 0.000169
vt 0.159644 0.000000
vt 0.770828 0.000000
vt 0.175384 0.000000
vt 0.946075 0.616273
vt 0.938249 0.616676
vt 0.777674 0.000363
vt 0.789252 0.852914
vt 0.754314 0.666560
vt 0.789252 0.616297
vt 0.754314 0.616297
vt 0.719371 0.807225
vt 0.719756 0.658174
vt 0.818673 0.844079
vt 0.789252 0.659843
vt 0.818673 0.616297
vt 0.143672 0.945076
vt 0.114258 0.947476
vt 0.114643 0.802126
vt 0.952650 0.388409
vt 0.332761 0.767665
vt 0.719370 0.616297
vt 0.448480 0.604042
vt 0.638730 0.881154
vt 0.114258 0.901101
vt 0.402705 0.128220
vt 0.952650 0.342578
vt 0.070745 0.141481
vt 0.357665 0.747837
vt 0.524473 0.776767
vt 0.450988 0.849363
vt 0.451029 0.866736
vt 0.443133 0.882391
vt 0.419197 0.884885
vt 0.405280 0.869140
vt 0.407158 0.877028
vt 0.419965 0.832123
vt 0.754700 0.811908
vt 0.754314 0.858946
vt 0.789638 0.808894
vt 0.143672 0.767665
vt 0.143672 0.989789
vn -0.0000 -0.9960 0.0893
vn 0.0000 -0.8397 -0.5430
vn 0.0000 -0.6631 0.7486
vn 0.0000 0.9960 0.0893
vn 0.0000 0.8397 -0.5430
vn 0.0000 0.6631 0.7486
vn 0.9702 0.0000 0.2424
vn 0.0000 0.0000 1.0000
vn -0.9702 0.0000 0.2424
vn -0.9765 0.0000 0.2153
vn 0.0000 -0.7224 -0.6915
vn 0.0000 0.7224 -0.6915
vn 0.9765 0.0000 0.2153
vn 0.0000 -0.9459 -0.3245
vn 0.0000 0.9458 -0.3247
vn 0.0000 0.8603 0.5098
vn -1.0000 0.0000 0.0000
vn -0.7603 0.0000 0.6496
vn 0.0000 -0.8603 0.5098
vn -0.0000 0.9963 0.0863
vn -0.2368 0.8719 0.4286
vn -0.6441 0.6354 0.4260
vn -0.8070 0.2133 0.5507
vn -0.2612 0.9617 0.0833
vn -0.7106 0.7010 0.0607
vn -0.9666 0.2555 0.0221
vn 0.7603 0.0000 0.6496
vn 0.8146 0.2153 0.5386
vn 0.6528 0.6440 0.3990
vn 0.2387 0.8788 0.4131
vn 0.2612 0.9617 0.0833
vn 0.7106 0.7010 0.0607
vn 0.9666 0.2555 0.0221
vn -0.8385 0.0000 -0.5449
vn -0.8238 -0.2178 0.5234
vn -0.6629 -0.6539 0.3647
vn -0.2409 -0.8871 0.3937
vn -0.2612 -0.9617 0.0833
vn -0.7106 -0.7010 0.0607
vn -0.9666 -0.2555 0.0221
vn 0.0000 -0.9963 0.0863
vn 0.2397 -0.8824 0.4049
vn 0.6572 -0.6483 0.3845
vn 0.8185 -0.2164 0.5321
vn 0.2612 -0.9617 0.0833
vn 0.7106 -0.7010 0.0607
vn 0.9666 -0.2555 0.0221
vn 1.0000 0.0000 -0.0000
vn 0.0000 -0.8361 -0.5485
vn 0.7968 -0.2106 -0.5663
vn -0.2159 -0.7949 -0.5671
vn -0.5725 0.5648 -0.5943
vn 0.5753 0.5676 -0.5889
vn 0.8379 0.0000 -0.5459
vn -0.7950 0.2102 -0.5690
vn 0.7969 0.2107 -0.5662
vn -0.5767 -0.5689 -0.5863
vn 0.2154 -0.7930 -0.5699
vn 0.0000 -0.8354 -0.5496
vn -0.7990 -0.2112 -0.5629
vn 0.2164 0.7968 -0.5641
vn 0.5742 -0.5665 -0.5911
vn 0.0000 0.8409 -0.5412
vn -0.2158 0.7946 -0.5676
vn -0.0000 0.0000 -1.0000
vn -0.5772 -0.5695 -0.5852
vn -0.5731 0.5654 -0.5932
vn -0.7997 -0.2114 -0.5619
vn -0.7957 0.2103 -0.5679
vn -0.8392 0.0000 -0.5439
vn 0.2166 0.7975 -0.5630
vn 0.2156 -0.7937 -0.5688
vn 0.5759 0.5681 -0.5879
vn 0.5748 -0.5670 -0.5900
vn 0.7976 0.2108 -0.5652
vn 0.7975 -0.2108 -0.5653
vn 0.0000 0.8416 -0.5401
vn 0.8386 0.0000 -0.5448
vn -0.2161 -0.7956 -0.5660
vn -0.2160 0.7952 -0.5665
vn -0.9766 0.0000 0.2152
vn -0.0000 0.9459 -0.3245
vn 0.5742 -0.5665 -0.5910
s off
f 3/1/1 2/2/1 4/3/1
f 1/4/2 91/5/2 2/2/2
f 3/1/3 92/6/3 93/7/3
f 8/8/4 5/9/4 6/10/4
f 5/9/5 86/11/5 6/10/5
f 7/12/6 87/13/6 88/14/6
f 10/15/7 11/16/7 9/17/7
f 12/18/8 15/19/8 11/20/8
f 16/21/9 13/22/9 15/23/9
f 13/22/10 17/24/10 41/25/10
f 15/26/11 9/27/11 11/28/11
f 12/29/12 14/30/12 16/31/12
f 9/17/13 32/32/13 10/15/13
f 13/33/14 50/34/14 9/35/14
f 10/36/15 17/37/15 14/38/15
f 17/37/16 31/39/16 22/40/16
f 23/41/17 36/42/17 39/43/17
f 17/24/18 39/43/18 41/25/18
f 50/34/19 40/44/19 48/45/19
f 31/39/20 85/46/20 88/14/20
f 22/40/21 24/47/21 17/37/21
f 24/48/22 25/49/22 17/24/22
f 25/49/23 23/41/23 17/24/23
f 22/40/24 21/50/24 24/47/24
f 24/48/25 20/51/25 25/49/25
f 25/49/26 18/52/26 23/41/26
f 49/53/27 32/32/27 50/54/27
f 30/55/28 33/56/28 32/32/28
f 33/57/29 34/58/29 32/59/29
f 34/58/30 31/39/30 32/59/30
f 31/39/31 28/60/31 26/61/31
f 34/62/32 29/63/32 28/64/32
f 33/56/33 27/65/33 29/63/33
f 36/42/34 56/66/34 64/67/34
f 39/43/35 42/68/35 41/25/35
f 42/68/36 43/69/36 41/25/36
f 43/70/37 40/44/37 41/71/37
f 40/44/38 37/72/38 35/73/38
f 43/69/39 38/74/39 37/75/39
f 42/68/40 36/42/40 38/74/40
f 48/45/41 40/44/41 92/6/41
f 48/45/42 51/76/42 50/34/42
f 51/76/43 52/77/43 50/34/43
f 52/78/44 49/53/44 50/54/44
f 48/45/45 47/79/45 51/76/45
f 51/80/46 46/81/46 52/78/46
f 52/78/47 44/82/47 49/53/47
f 27/65/48 49/53/48 44/82/48
f 62/83/49 81/84/49 65/85/49
f 44/82/50 67/86/50 68/87/50
f 35/73/51 61/88/51 62/83/51
f 21/89/52 55/90/52 20/91/52
f 28/92/53 59/93/53 57/94/53
f 27/65/54 68/87/54 60/95/54
f 18/52/55 55/96/55 56/66/55
f 27/65/56 59/97/56 29/63/56
f 38/98/57 61/99/57 37/100/57
f 45/101/58 66/102/58 47/79/58
f 35/73/59 65/85/59 45/101/59
f 36/42/60 63/103/60 38/74/60
f 26/61/61 57/104/61 58/105/61
f 46/106/62 66/107/62 67/108/62
f 26/61/63 53/109/63 19/110/63
f 19/110/64 54/111/64 21/50/64
f 74/112/65 84/113/65 80/114/65
f 63/115/66 77/116/66 61/99/66
f 54/117/67 71/118/67 55/90/67
f 64/67/68 79/119/68 63/103/68
f 56/66/69 71/120/69 72/121/69
f 64/67/70 72/121/70 80/122/70
f 58/105/71 73/123/71 74/124/71
f 65/85/72 82/125/72 66/102/72
f 57/94/73 75/126/73 73/127/73
f 67/108/74 82/128/74 83/129/74
f 60/95/75 75/130/75 59/97/75
f 68/87/76 83/131/76 84/132/76
f 58/105/77 69/133/77 53/109/77
f 60/95/78 84/132/78 76/134/78
f 62/83/79 77/135/79 78/136/79
f 53/109/80 70/137/80 54/111/80
f 87/138/17 6/139/17 86/140/17
f 88/141/48 5/142/48 7/143/48
f 86/11/20 26/61/20 19/110/20
f 92/144/48 2/145/48 91/146/48
f 90/147/17 1/148/17 3/149/17
f 91/5/41 89/150/41 35/73/41
f 3/1/1 1/4/1 2/2/1
f 1/4/2 89/150/2 91/5/2
f 3/1/3 4/3/3 92/6/3
f 8/8/4 7/12/4 5/9/4
f 5/9/5 85/46/5 86/11/5
f 7/12/6 8/8/6 87/13/6
f 10/15/7 12/151/7 11/16/7
f 12/18/8 16/152/8 15/19/8
f 16/21/9 14/153/9 13/22/9
f 13/22/81 14/153/81 17/24/81
f 15/26/11 13/154/11 9/27/11
f 12/29/12 10/155/12 14/30/12
f 9/17/13 50/54/13 32/32/13
f 13/33/14 41/71/14 50/34/14
f 10/36/82 32/59/82 17/37/82
f 17/37/16 32/59/16 31/39/16
f 23/41/17 18/52/17 36/42/17
f 17/24/18 23/41/18 39/43/18
f 50/34/19 41/71/19 40/44/19
f 87/13/20 22/40/20 31/39/20
f 31/39/20 26/61/20 85/46/20
f 88/14/20 87/13/20 31/39/20
f 22/40/24 19/110/24 21/50/24
f 24/48/25 21/156/25 20/51/25
f 25/49/26 20/51/26 18/52/26
f 49/53/27 30/55/27 32/32/27
f 31/39/31 34/58/31 28/60/31
f 34/62/32 33/56/32 29/63/32
f 33/56/33 30/55/33 27/65/33
f 36/42/34 18/52/34 56/66/34
f 40/44/38 43/70/38 37/72/38
f 43/69/39 42/68/39 38/74/39
f 42/68/40 39/43/40 36/42/40
f 40/44/41 35/73/41 90/157/41
f 40/44/41 90/157/41 93/7/41
f 91/5/41 45/101/41 48/45/41
f 40/44/41 93/7/41 92/6/41
f 92/6/41 91/5/41 48/45/41
f 48/45/45 45/101/45 47/79/45
f 51/80/46 47/158/46 46/81/46
f 52/78/47 46/81/47 44/82/47
f 27/65/48 30/55/48 49/53/48
f 62/83/49 78/136/49 81/84/49
f 44/82/50 46/81/50 67/86/50
f 35/73/51 37/72/51 61/88/51
f 21/89/52 54/117/52 55/90/52
f 28/92/53 29/159/53 59/93/53
f 27/65/54 44/82/54 68/87/54
f 18/52/55 20/51/55 55/96/55
f 27/65/56 60/95/56 59/97/56
f 38/98/57 63/115/57 61/99/57
f 45/101/58 65/85/58 66/102/58
f 35/73/59 62/83/59 65/85/59
f 36/42/60 64/67/60 63/103/60
f 26/61/61 28/60/61 57/104/61
f 46/106/83 47/160/83 66/107/83
f 26/61/63 58/105/63 53/109/63
f 19/110/64 53/109/64 54/111/64
f 81/161/65 78/162/65 84/113/65
f 77/116/65 79/163/65 78/162/65
f 80/114/65 72/164/65 69/165/65
f 71/118/65 70/166/65 69/165/65
f 69/165/65 74/112/65 80/114/65
f 73/127/65 75/126/65 74/112/65
f 76/167/65 84/113/65 74/112/65
f 83/129/65 82/128/65 81/161/65
f 78/162/65 79/163/65 80/114/65
f 72/164/65 71/118/65 69/165/65
f 74/112/65 75/126/65 76/167/65
f 84/113/65 83/129/65 81/161/65
f 78/162/65 80/114/65 84/113/65
f 63/115/66 79/163/66 77/116/66
f 54/117/67 70/166/67 71/118/67
f 64/67/68 80/122/68 79/119/68
f 56/66/69 55/96/69 71/120/69
f 64/67/70 56/66/70 72/121/70
f 58/105/71 57/104/71 73/123/71
f 65/85/72 81/84/72 82/125/72
f 57/94/73 59/93/73 75/126/73
f 67/108/74 66/107/74 82/128/74
f 60/95/75 76/134/75 75/130/75
f 68/87/76 67/86/76 83/131/76
f 58/105/77 74/124/77 69/133/77
f 60/95/78 68/87/78 84/132/78
f 62/83/79 61/88/79 77/135/79
f 53/109/80 69/133/80 70/137/80
f 87/138/17 8/168/17 6/139/17
f 88/141/48 85/169/48 5/142/48
f 22/40/20 87/13/20 86/11/20
f 86/11/20 85/46/20 26/61/20
f 19/110/20 22/40/20 86/11/20
f 92/144/48 4/170/48 2/145/48
f 3/149/17 93/171/17 90/147/17
f 90/147/17 89/172/17 1/148/17
f 35/73/41 45/101/41 91/5/41
f 89/150/41 90/157/41 35/73/41
