# Blender v2.79 (sub 0) OBJ File: 'Hoe.blend'
# www.blender.org
o Hoe_Cube
v -0.112514 -0.046608 -0.112514
v 0.112514 -0.046608 -0.112514
v 0.112514 -0.046608 0.112514
v -0.112514 -0.046608 0.112514
v -0.339132 6.328626 0.018314
v 0.339132 6.328626 0.018314
v 0.120653 6.453393 0.120653
v -0.120653 6.453393 0.120653
v -0.112514 6.233632 -0.112514
v 0.112514 6.233632 -0.112514
v 0.112514 6.233632 0.112514
v -0.112514 6.233632 0.112514
v -0.120653 6.233632 0.120653
v 0.120653 6.233632 0.120653
v 0.339132 6.401974 0.018314
v -0.339132 6.401974 0.018314
v -0.120653 6.233632 -0.120653
v -0.120653 6.453393 -0.120653
v 0.120653 6.233632 -0.120653
v 0.120653 6.453393 -0.120653
v -0.270129 6.289427 -1.106306
v 0.270129 6.289427 -1.106305
v -0.270129 6.340404 -1.106306
v 0.270129 6.340404 -1.106305
vt 0.884596 0.151083
vt 1.000000 0.115253
vt 1.000000 0.151083
vt 0.809410 0.256620
vt 0.933115 0.218197
vt 0.933115 0.256620
vt 0.997299 0.038423
vt 0.884596 0.076838
vt 0.884596 0.038423
vt 0.884596 0.038423
vt 0.997298 0.000000
vt 0.997298 0.038423
vt 0.461568 1.000000
vt 0.346189 0.000000
vt 0.461568 0.000000
vt 0.933161 0.218197
vt 0.928987 0.181071
vt 0.933161 0.179775
vt 0.813584 0.216901
vt 0.809410 0.179775
vt 0.813584 0.181071
vt 0.884596 0.115253
vt 0.997299 0.076838
vt 0.997299 0.115253
vt 0.809410 0.218197
vt 0.928988 0.216901
vt 0.230808 1.000000
vt 0.115404 0.000000
vt 0.230808 0.000000
vt 0.230808 0.000000
vt 0.346188 1.000000
vt 0.230809 1.000000
vt 0.000000 0.000000
vt 0.115404 1.000000
vt 0.000001 1.000000
vt 0.922112 0.295043
vt 0.809410 0.256620
vt 0.922112 0.256620
vt 0.970777 0.287775
vt 0.933161 0.179775
vt 0.970777 0.179775
vt 0.884596 0.000406
vt 0.858469 0.179492
vt 0.847003 0.000000
vt 0.809410 0.000000
vt 0.496956 0.179274
vt 0.461568 0.000000
vt 0.847003 0.179368
vt 0.820876 0.000282
vt 0.847003 0.000000
vt 0.809410 0.179274
vt 0.496956 0.358380
vt 0.461568 0.179274
vt 0.996920 0.265800
vt 0.970777 0.179775
vt 0.996920 0.179775
vt 0.884596 0.115253
vt 0.809410 0.218197
vt 0.997299 0.076838
vt 0.884596 0.000000
vt 0.346188 1.000000
vt 0.884596 0.076838
vt 0.115404 1.000000
vt 0.346188 0.000000
vt 0.115404 0.000000
vt 0.809410 0.295043
vt 0.933161 0.287775
vt 0.884596 0.179775
vt 0.774022 0.179274
vt 0.809410 0.179775
vt 0.774022 0.358380
vt 0.970777 0.265800
vn 0.0000 -1.0000 -0.0000
vn 0.0000 1.0000 0.0000
vn 1.0000 0.0000 0.0000
vn -0.0000 0.0000 1.0000
vn -1.0000 0.0000 -0.0000
vn 0.0000 -1.0000 0.0001
vn 0.0000 -0.0000 -1.0000
vn 0.9981 0.0000 -0.0612
vn 0.0000 0.9985 -0.0547
vn -0.9981 0.0000 -0.0612
vn -0.0000 -0.9994 0.0348
s off
f 2/1/1 4/2/1 1/3/1
f 8/4/2 20/5/2 18/6/2
f 20/7/3 14/8/3 19/9/3
f 7/10/4 13/11/4 14/12/4
f 1/13/5 12/14/5 9/15/5
f 17/16/1 12/17/1 13/18/1
f 10/19/1 14/20/1 11/21/1
f 14/20/1 12/17/1 11/21/1
f 17/22/5 8/23/5 18/24/5
f 19/25/6 9/26/6 17/16/6
f 9/27/7 2/28/7 1/29/7
f 10/30/3 3/31/3 2/32/3
f 11/33/4 4/34/4 3/35/4
f 20/36/7 17/37/7 18/38/7
f 6/39/4 16/40/4 5/41/4
f 6/42/8 24/43/8 15/44/8
f 15/45/9 23/46/9 16/47/9
f 5/48/10 23/49/10 21/50/10
f 5/51/11 22/52/11 6/53/11
f 21/54/7 24/55/7 22/56/7
f 2/1/1 3/57/1 4/2/1
f 8/4/2 7/58/2 20/5/2
f 20/7/3 7/59/3 14/8/3
f 7/10/4 8/60/4 13/11/4
f 1/13/5 4/61/5 12/14/5
f 17/16/1 9/26/1 12/17/1
f 10/19/1 19/25/1 14/20/1
f 14/20/1 13/18/1 12/17/1
f 17/22/5 13/62/5 8/23/5
f 19/25/1 10/19/1 9/26/1
f 9/27/7 10/63/7 2/28/7
f 10/30/3 11/64/3 3/31/3
f 11/33/4 12/65/4 4/34/4
f 20/36/7 19/66/7 17/37/7
f 6/39/4 15/67/4 16/40/4
f 6/42/8 22/68/8 24/43/8
f 15/45/9 24/69/9 23/46/9
f 5/48/10 16/70/10 23/49/10
f 5/51/11 21/71/11 22/52/11
f 21/54/7 23/72/7 24/55/7
