# Blender v2.79 (sub 0) OBJ File: 'Hoe.blend'
# www.blender.org
o Cube
v -0.112514 -0.046608 -0.112514
v 0.112514 -0.046608 -0.112514
v 0.112514 -0.046608 0.112514
v -0.112514 -0.046608 0.112514
v -0.339132 6.328626 0.018314
v 0.339132 6.328626 0.018314
v 0.120653 6.453393 0.120653
v -0.120653 6.453393 0.120653
v -0.112514 6.233632 -0.112514
v 0.112514 6.233632 -0.112514
v 0.112514 6.233632 0.112514
v -0.112514 6.233632 0.112514
v -0.120653 6.233632 0.120653
v 0.120653 6.233632 0.120653
v 0.339132 6.401974 0.018314
v -0.339132 6.401974 0.018314
v -0.120653 6.233632 -0.120653
v -0.120653 6.453393 -0.120653
v 0.120653 6.233632 -0.120653
v 0.120653 6.453393 -0.120653
v -0.270129 6.289427 -1.106306
v 0.270129 6.289427 -1.106305
v -0.270129 6.340404 -1.106306
v 0.270129 6.340404 -1.106305
vn 0.0000 -1.0000 0.0000
vn 0.0000 1.0000 -0.0000
vn 1.0000 0.0000 0.0000
vn -0.0000 0.0000 1.0000
vn -1.0000 0.0000 -0.0000
vn 0.0000 0.0000 -1.0000
vn 0.9981 0.0000 -0.0612
vn 0.0000 0.9985 -0.0547
vn -0.9981 0.0000 -0.0612
vn -0.0000 -0.9994 0.0348
s off
f 1//1 2//1 3//1 4//1
f 18//2 8//2 7//2 20//2
f 19//3 20//3 7//3 14//3
f 14//4 7//4 8//4 13//4
f 9//5 1//5 4//5 12//5
f 17//1 9//1 12//1 13//1
f 10//1 19//1 14//1 11//1
f 11//1 14//1 13//1 12//1
f 18//5 17//5 13//5 8//5
f 17//1 19//1 10//1 9//1
f 1//6 9//6 10//6 2//6
f 2//3 10//3 11//3 3//3
f 3//4 11//4 12//4 4//4
f 18//6 20//6 19//6 17//6
f 5//4 6//4 15//4 16//4
f 15//7 6//7 22//7 24//7
f 16//8 15//8 24//8 23//8
f 5//9 16//9 23//9 21//9
f 6//10 5//10 21//10 22//10
f 22//6 21//6 23//6 24//6
