# Blender v2.79 (sub 0) OBJ File: 'FishingRod.blend'
# www.blender.org
o String_Cylinder.001
v -0.006852 8.019869 -0.303737
v 0.006852 8.019869 -0.303737
v -0.006802 8.036264 -0.303972
v 0.006802 8.036264 -0.303972
v 0.006802 8.036264 -6.598310
v 0.006852 8.019869 -6.598074
v -0.000000 8.019869 -6.598749
v -0.006852 8.019869 -6.598074
v -0.006802 8.036264 -6.598310
v -0.000000 8.036264 -6.598980
v -0.006852 8.019869 -15.803740
v 0.006852 8.019869 -15.803740
v -0.006802 8.036264 -15.803976
v 0.006802 8.036264 -15.803976
vn 0.0000 -0.0144 -0.9999
vn 1.0000 0.0030 0.0000
vn -1.0000 0.0030 0.0000
vn 0.0000 -1.0000 0.0000
s off
f 4//1 1//1 3//1
f 14//1 11//1 13//1
f 12//2 4//2 2//2
f 3//3 11//3 1//3
f 3//4 14//4 4//4
f 1//4 12//4 2//4
f 4//1 2//1 1//1
f 14//1 12//1 11//1
f 12//2 14//2 4//2
f 3//3 13//3 11//3
f 3//4 13//4 14//4
f 1//4 11//4 12//4
l 6 5
l 10 5
l 10 9
l 7 6
l 8 7
l 8 9
o Rod_Cylinder
v -0.091269 0.000000 0.000000
v -0.084559 4.262059 -0.070292
v -0.089516 0.000000 -0.017806
v -0.082934 4.262059 -0.086788
v -0.084322 0.000000 -0.034927
v -0.078122 4.262059 -0.102651
v -0.075888 0.000000 -0.050707
v -0.070308 4.262059 -0.117270
v -0.064537 0.000000 -0.064537
v -0.059792 4.262059 -0.130084
v -0.050707 0.000000 -0.075888
v -0.046978 4.262059 -0.140600
v -0.034927 0.000000 -0.084322
v -0.032359 4.262059 -0.148414
v -0.017806 0.000000 -0.089516
v -0.016497 4.262059 -0.153226
v -0.000000 0.000000 -0.091269
v -0.000000 4.262059 -0.154850
v 0.017806 0.000000 -0.089516
v 0.016497 4.262059 -0.153226
v 0.034927 0.000000 -0.084322
v 0.032359 4.262059 -0.148414
v 0.050707 0.000000 -0.075888
v 0.046978 4.262059 -0.140600
v 0.064537 0.000000 -0.064537
v 0.059792 4.262059 -0.130084
v 0.075888 0.000000 -0.050707
v 0.070308 4.262059 -0.117270
v 0.084322 0.000000 -0.034927
v 0.078122 4.262059 -0.102651
v 0.089516 0.000000 -0.017806
v 0.082934 4.262059 -0.086788
v 0.091269 0.000000 0.000000
v 0.084559 4.262059 -0.070292
v 0.089516 0.000000 0.017806
v 0.082934 4.262059 -0.053795
v 0.084322 0.000000 0.034927
v 0.078122 4.262059 -0.037932
v 0.075888 0.000000 0.050707
v 0.070308 4.262059 -0.023313
v 0.064537 0.000000 0.064537
v 0.059792 4.262059 -0.010500
v 0.050707 0.000000 0.075888
v 0.046978 4.262059 0.000016
v 0.034927 0.000000 0.084322
v 0.032359 4.262059 0.007830
v 0.017806 0.000000 0.089516
v 0.016497 4.262059 0.012642
v -0.000000 0.000000 0.091269
v -0.000000 4.262059 0.014267
v -0.017806 0.000000 0.089516
v -0.016497 4.262059 0.012642
v -0.034927 0.000000 0.084322
v -0.032359 4.262059 0.007830
v -0.050707 0.000000 0.075888
v -0.046978 4.262059 0.000016
v -0.064537 0.000000 0.064537
v -0.059792 4.262059 -0.010500
v -0.075888 0.000000 0.050707
v -0.070308 4.262059 -0.023313
v -0.084322 0.000000 0.034927
v -0.078122 4.262059 -0.037933
v -0.089516 0.000000 0.017806
v -0.082934 4.262059 -0.053795
v -0.034616 8.052659 -0.270259
v -0.033951 8.052659 -0.277012
v -0.031981 8.052659 -0.283506
v -0.028782 8.052659 -0.289491
v -0.024477 8.052659 -0.294736
v -0.019232 8.052659 -0.299041
v -0.013247 8.052659 -0.302240
v -0.006753 8.052659 -0.304210
v -0.000000 8.052659 -0.304875
v 0.006753 8.052659 -0.304210
v 0.013247 8.052659 -0.302240
v 0.019232 8.052659 -0.299041
v 0.024477 8.052659 -0.294736
v 0.028782 8.052659 -0.289491
v 0.031981 8.052659 -0.283506
v 0.033951 8.052659 -0.277012
v 0.034616 8.052659 -0.270259
v 0.033951 8.052659 -0.263506
v 0.031981 8.052659 -0.257012
v 0.028782 8.052659 -0.251028
v 0.024477 8.052659 -0.245782
v 0.019232 8.052659 -0.241477
v 0.013247 8.052659 -0.238278
v 0.006753 8.052659 -0.236308
v -0.000000 8.052659 -0.235643
v -0.006753 8.052659 -0.236308
v -0.013247 8.052659 -0.238278
v -0.019232 8.052659 -0.241477
v -0.024477 8.052659 -0.245782
v -0.028782 8.052659 -0.251028
v -0.031981 8.052659 -0.257012
v -0.033951 8.052659 -0.263506
v -0.006852 8.019869 -0.303737
v -0.000000 8.019869 -0.304412
v 0.035120 8.019869 -0.269292
v 0.034446 8.019869 -0.262440
v -0.006852 8.019869 -0.234846
v -0.013440 8.019869 -0.236845
v -0.029202 8.019869 -0.288804
v -0.024834 8.019869 -0.294126
v 0.024834 8.019869 -0.294126
v 0.029202 8.019869 -0.288804
v 0.019512 8.019869 -0.240090
v 0.013440 8.019869 -0.236845
v -0.032447 8.019869 -0.255852
v -0.034446 8.019869 -0.262440
v 0.006852 8.019869 -0.303737
v 0.032447 8.019869 -0.255852
v -0.019512 8.019869 -0.240090
v -0.019512 8.019869 -0.298493
v 0.032447 8.019869 -0.282732
v 0.006852 8.019869 -0.234846
v -0.035120 8.019869 -0.269292
v -0.034446 8.019869 -0.276143
v 0.013440 8.019869 -0.301739
v 0.029202 8.019869 -0.249780
v -0.024834 8.019869 -0.244458
v -0.013440 8.019869 -0.301739
v 0.034446 8.019869 -0.276143
v -0.000000 8.019869 -0.234171
v -0.032447 8.019869 -0.282732
v 0.019512 8.019869 -0.298493
v 0.024834 8.019869 -0.244458
v -0.029202 8.019869 -0.249780
v -0.006802 8.036263 -0.303974
v 0.034868 8.036263 -0.269775
v -0.006803 8.036263 -0.235577
v -0.028992 8.036263 -0.289147
v 0.024656 8.036263 -0.294431
v 0.019372 8.036263 -0.240784
v -0.032214 8.036263 -0.256432
v -0.034868 8.036263 -0.269775
v -0.000000 8.036263 -0.304644
v 0.034198 8.036263 -0.262973
v -0.013344 8.036263 -0.237561
v -0.024656 8.036263 -0.294431
v 0.028992 8.036263 -0.289147
v 0.013343 8.036263 -0.237561
v -0.034198 8.036263 -0.262973
v 0.006802 8.036263 -0.303974
v 0.032214 8.036263 -0.256432
v -0.019372 8.036263 -0.240784
v -0.019372 8.036263 -0.298767
v 0.032214 8.036263 -0.283119
v 0.006802 8.036263 -0.235577
v -0.034198 8.036263 -0.276578
v 0.013343 8.036263 -0.301990
v 0.028992 8.036263 -0.250404
v -0.024656 8.036263 -0.245120
v -0.013344 8.036263 -0.301990
v 0.034198 8.036263 -0.276578
v -0.000000 8.036263 -0.234907
v -0.032214 8.036263 -0.283119
v 0.019372 8.036263 -0.298767
v 0.024656 8.036263 -0.245120
v -0.028992 8.036263 -0.250404
v 0.006802 6.039104 -6.465453
v 0.006852 6.022709 -6.465217
v -0.000000 6.022709 -6.465891
v -0.006852 6.022709 -6.465217
v -0.006802 6.039104 -6.465453
v -0.000000 6.039104 -6.466123
vn -0.9952 -0.0000 -0.0980
vn -0.9569 -0.0032 -0.2903
vn -0.8819 -0.0062 -0.4714
vn -0.7730 -0.0089 -0.6344
vn -0.6344 -0.0112 -0.7730
vn -0.4714 -0.0130 -0.8818
vn -0.2903 -0.0142 -0.9568
vn -0.0980 -0.0148 -0.9951
vn 0.0980 -0.0148 -0.9951
vn 0.2903 -0.0142 -0.9568
vn 0.4714 -0.0130 -0.8818
vn 0.6344 -0.0112 -0.7730
vn 0.7730 -0.0089 -0.6344
vn 0.8819 -0.0062 -0.4714
vn 0.9569 -0.0032 -0.2903
vn 0.9952 -0.0000 -0.0980
vn 0.9952 0.0032 0.0980
vn 0.9569 0.0064 0.2903
vn 0.8819 0.0093 0.4714
vn 0.7730 0.0120 0.6343
vn 0.6343 0.0143 0.7729
vn 0.4713 0.0161 0.8818
vn 0.2902 0.0173 0.9568
vn 0.0980 0.0180 0.9950
vn -0.0980 0.0180 0.9950
vn -0.2902 0.0173 0.9568
vn -0.4713 0.0161 0.8818
vn -0.6343 0.0143 0.7729
vn -0.7730 0.0120 0.6343
vn -0.8819 0.0093 0.4714
vn -0.0980 -0.0141 -0.9951
vn -0.9569 0.0064 0.2903
vn -0.9952 0.0032 0.0980
vn 0.0000 -1.0000 0.0000
vn 0.0000 1.0000 0.0000
vn 0.9950 0.0182 0.0980
vn -0.2900 0.0435 0.9560
vn -0.7730 -0.0034 -0.6344
vn 0.7730 -0.0034 -0.6344
vn 0.4710 0.0413 0.8812
vn -0.9567 0.0239 0.2902
vn 0.0980 -0.0140 -0.9951
vn 0.9567 0.0239 0.2902
vn -0.4710 0.0413 0.8812
vn -0.6344 -0.0075 -0.7730
vn 0.8819 0.0014 -0.4714
vn 0.2900 0.0435 0.9560
vn -0.9951 0.0124 -0.0980
vn -0.9950 0.0182 0.0980
vn 0.2903 -0.0129 -0.9569
vn 0.8815 0.0292 0.4712
vn -0.6339 0.0381 0.7724
vn -0.4714 -0.0107 -0.8819
vn 0.9569 0.0067 -0.2903
vn 0.0979 0.0446 0.9942
vn -0.9569 0.0067 -0.2903
vn 0.4714 -0.0107 -0.8819
vn 0.7725 0.0340 0.6341
vn -0.7725 0.0340 0.6341
vn -0.2902 -0.0129 -0.9569
vn 0.9951 0.0124 -0.0980
vn -0.0979 0.0446 0.9942
vn -0.8819 0.0014 -0.4714
vn 0.6344 -0.0075 -0.7730
vn 0.6339 0.0381 0.7725
vn -0.8816 0.0292 0.4712
vn -0.8813 0.0380 0.4711
vn 0.6335 0.0539 0.7719
vn 0.6341 -0.0278 -0.7727
vn -0.8819 -0.0119 -0.4714
vn -0.0978 0.0657 0.9930
vn 0.9952 0.0079 -0.0980
vn -0.2901 -0.0376 -0.9563
vn -0.7722 0.0466 0.6337
vn 0.7722 0.0466 0.6337
vn 0.4711 -0.0336 -0.8814
vn -0.9569 -0.0023 -0.2903
vn 0.0978 0.0657 0.9930
vn 0.9569 -0.0023 -0.2903
vn -0.4711 -0.0336 -0.8814
vn -0.6335 0.0539 0.7719
vn 0.8813 0.0380 0.4711
vn 0.2901 -0.0376 -0.9563
vn -0.9950 0.0183 0.0980
vn -0.9952 0.0079 -0.0980
vn 0.2897 0.0636 0.9550
vn 0.8819 -0.0119 -0.4714
vn -0.6341 -0.0278 -0.7727
vn -0.4706 0.0597 0.8803
vn 0.9566 0.0285 0.2902
vn 0.0979 -0.0396 -0.9944
vn -0.9566 0.0285 0.2902
vn 0.4706 0.0597 0.8803
vn 0.7728 -0.0205 -0.6343
vn -0.7728 -0.0205 -0.6343
vn -0.2897 0.0636 0.9550
vn 0.9950 0.0183 0.0980
vn -0.0979 -0.0396 -0.9944
vn 0.6343 -0.0075 -0.7730
vn -0.2903 -0.0129 -0.9569
vn -0.7726 0.0340 0.6340
vn 0.7725 0.0340 0.6340
vn 0.4713 -0.0107 -0.8819
vn -0.6339 0.0381 0.7725
vn 0.2902 -0.0129 -0.9569
vn 0.0981 -0.0140 -0.9951
vn -0.0980 -0.0140 -0.9951
vn 0.0000 1.0000 -0.0004
vn 0.0000 1.0000 -0.0008
vn 0.0000 1.0000 0.0008
vn 0.0000 1.0000 -0.0001
vn 0.0000 1.0000 -0.0011
vn 0.0000 1.0000 0.0004
vn 0.0000 1.0000 -0.0003
vn 0.0000 1.0000 0.0002
vn 0.0980 -0.0141 -0.9951
vn -0.4713 -0.0107 -0.8819
vn 0.7726 0.0340 0.6340
vn 0.6339 0.0381 0.7724
vn 0.4706 0.0597 0.8804
vn -0.8815 0.0292 0.4712
vn -0.7725 0.0340 0.6340
vn 0.8816 0.0292 0.4712
vn -0.6343 -0.0075 -0.7730
vn 0.0979 -0.0140 -0.9951
vn -0.0979 -0.0140 -0.9951
vn -0.0981 -0.0140 -0.9951
s off
f 16//5 17//5 15//5
f 18//6 19//6 17//6
f 20//7 21//7 19//7
f 22//8 23//8 21//8
f 24//9 25//9 23//9
f 26//10 27//10 25//10
f 28//11 29//11 27//11
f 30//12 31//12 29//12
f 31//13 34//13 33//13
f 33//14 36//14 35//14
f 35//15 38//15 37//15
f 37//16 40//16 39//16
f 39//17 42//17 41//17
f 41//18 44//18 43//18
f 43//19 46//19 45//19
f 45//20 48//20 47//20
f 47//21 50//21 49//21
f 49//22 52//22 51//22
f 51//23 54//23 53//23
f 53//24 56//24 55//24
f 55//25 58//25 57//25
f 57//26 60//26 59//26
f 59//27 62//27 61//27
f 61//28 64//28 63//28
f 64//29 65//29 63//29
f 66//30 67//30 65//30
f 68//31 69//31 67//31
f 70//32 71//32 69//32
f 72//33 73//33 71//33
f 74//34 75//34 73//34
f 151//35 86//35 87//35
f 76//36 77//36 75//36
f 78//37 15//37 77//37
f 45//38 61//38 77//38
f 97//39 89//39 81//39
f 144//40 96//40 152//40
f 153//41 104//41 105//41
f 154//42 82//42 83//42
f 147//43 92//43 155//43
f 148//44 101//44 156//44
f 157//45 109//45 110//45
f 151//46 88//46 158//46
f 152//47 97//47 159//47
f 160//48 105//48 106//48
f 161//49 83//49 84//49
f 155//50 93//50 162//50
f 156//51 102//51 163//51
f 164//52 79//52 80//52
f 150//53 110//53 79//53
f 158//54 89//54 165//54
f 159//55 98//55 166//55
f 167//56 106//56 107//56
f 168//57 84//57 85//57
f 162//58 94//58 169//58
f 163//59 103//59 170//59
f 171//60 80//60 81//60
f 165//61 90//61 172//61
f 166//62 99//62 173//62
f 174//63 107//63 108//63
f 143//64 85//64 86//64
f 169//65 95//65 144//65
f 145//66 103//66 104//66
f 146//67 81//67 82//67
f 172//68 91//68 147//68
f 173//69 100//69 148//69
f 149//70 108//70 109//70
f 76//71 142//71 123//71
f 56//72 121//72 58//72
f 38//73 119//73 40//73
f 22//74 139//74 117//74
f 66//75 138//75 115//75
f 46//76 113//76 48//76
f 30//77 136//77 111//77
f 74//78 135//78 142//78
f 54//79 141//79 56//79
f 36//80 140//80 38//80
f 20//81 132//81 139//81
f 62//82 138//82 64//82
f 44//83 137//83 46//83
f 28//84 128//84 136//84
f 72//85 127//85 135//85
f 52//86 134//86 54//86
f 34//87 133//87 36//87
f 16//88 124//88 131//88
f 18//89 131//89 132//89
f 60//90 130//90 62//90
f 42//91 129//91 44//91
f 26//92 118//92 128//92
f 70//93 116//93 127//93
f 50//94 126//94 52//94
f 32//95 125//95 34//95
f 78//96 123//96 124//96
f 58//97 122//97 60//97
f 40//98 120//98 42//98
f 24//99 117//99 118//99
f 68//100 115//100 116//100
f 48//101 114//101 50//101
f 32//102 111//102 112//102
f 123//70 174//70 149//70
f 141//69 148//69 121//69
f 140//103 147//103 119//103
f 117//67 171//67 146//67
f 115//66 170//66 145//66
f 137//65 144//65 113//65
f 111//104 168//104 143//104
f 142//105 167//105 174//105
f 134//106 173//106 141//106
f 133//107 172//107 140//107
f 139//60 164//60 171//60
f 130//59 170//59 138//59
f 129//58 169//58 137//58
f 136//57 161//57 168//57
f 135//108 160//108 167//108
f 126//55 166//55 134//55
f 125//109 165//109 133//109
f 131//53 157//53 150//53
f 132//52 150//52 164//52
f 122//51 163//51 130//51
f 120//50 162//50 129//50
f 128//49 154//49 161//49
f 127//48 153//48 160//48
f 114//47 159//47 126//47
f 124//45 149//45 157//45
f 121//44 156//44 122//44
f 119//43 155//43 120//43
f 118//42 146//42 154//42
f 116//41 145//41 153//41
f 113//40 152//40 114//40
f 177//110 180//110 175//110
f 112//35 143//35 151//35
f 16//5 18//5 17//5
f 18//6 20//6 19//6
f 20//7 22//7 21//7
f 22//8 24//8 23//8
f 24//9 26//9 25//9
f 26//10 28//10 27//10
f 28//11 30//11 29//11
f 30//12 32//12 31//12
f 31//13 32//13 34//13
f 33//14 34//14 36//14
f 35//15 36//15 38//15
f 37//16 38//16 40//16
f 39//17 40//17 42//17
f 41//18 42//18 44//18
f 43//19 44//19 46//19
f 45//20 46//20 48//20
f 47//21 48//21 50//21
f 49//22 50//22 52//22
f 51//23 52//23 54//23
f 53//24 54//24 56//24
f 55//25 56//25 58//25
f 57//26 58//26 60//26
f 59//27 60//27 62//27
f 61//28 62//28 64//28
f 64//29 66//29 65//29
f 66//30 68//30 67//30
f 68//31 70//31 69//31
f 70//32 72//32 71//32
f 72//33 74//33 73//33
f 74//34 76//34 75//34
f 151//111 143//111 86//111
f 76//36 78//36 77//36
f 78//37 16//37 15//37
f 77//38 15//38 17//38
f 17//38 19//38 21//38
f 21//38 23//38 25//38
f 25//38 27//38 21//38
f 29//38 31//38 33//38
f 33//38 35//38 37//38
f 37//38 39//38 41//38
f 41//38 43//38 45//38
f 45//38 47//38 49//38
f 49//38 51//38 53//38
f 53//38 55//38 57//38
f 57//38 59//38 61//38
f 61//38 63//38 65//38
f 65//38 67//38 69//38
f 69//38 71//38 73//38
f 73//38 75//38 69//38
f 77//38 17//38 21//38
f 21//38 27//38 29//38
f 29//38 33//38 45//38
f 37//38 41//38 45//38
f 45//38 49//38 53//38
f 53//38 57//38 45//38
f 61//38 65//38 69//38
f 69//38 75//38 77//38
f 77//38 21//38 29//38
f 33//38 37//38 45//38
f 45//38 57//38 61//38
f 61//38 69//38 77//38
f 77//38 29//38 45//38
f 81//39 80//39 79//39
f 79//112 110//112 109//112
f 109//113 108//113 107//113
f 107//39 106//39 109//39
f 105//114 104//114 103//114
f 103//114 102//114 101//114
f 101//114 100//114 99//114
f 99//39 98//39 101//39
f 97//115 96//115 95//115
f 95//39 94//39 97//39
f 93//39 92//39 91//39
f 91//113 90//113 89//113
f 89//113 88//113 87//113
f 87//116 86//116 89//116
f 85//113 84//113 83//113
f 83//117 82//117 81//117
f 81//39 79//39 105//39
f 109//39 106//39 105//39
f 105//39 103//39 101//39
f 101//118 98//118 97//118
f 97//39 94//39 93//39
f 93//39 91//39 97//39
f 89//115 86//115 85//115
f 85//39 83//39 89//39
f 79//39 109//39 105//39
f 105//39 101//39 81//39
f 97//39 91//39 89//39
f 89//119 83//119 81//119
f 81//39 101//39 97//39
f 144//40 95//40 96//40
f 153//41 145//41 104//41
f 154//42 146//42 82//42
f 147//43 91//43 92//43
f 148//44 100//44 101//44
f 157//45 149//45 109//45
f 151//120 87//120 88//120
f 152//47 96//47 97//47
f 160//48 153//48 105//48
f 161//49 154//49 83//49
f 155//50 92//50 93//50
f 156//51 101//51 102//51
f 164//52 150//52 79//52
f 150//53 157//53 110//53
f 158//109 88//109 89//109
f 159//55 97//55 98//55
f 167//108 160//108 106//108
f 168//121 161//121 84//121
f 162//58 93//58 94//58
f 163//59 102//59 103//59
f 171//60 164//60 80//60
f 165//61 89//61 90//61
f 166//122 98//122 99//122
f 174//105 167//105 107//105
f 143//104 168//104 85//104
f 169//65 94//65 95//65
f 145//66 170//66 103//66
f 146//67 171//67 81//67
f 172//68 90//68 91//68
f 173//123 99//123 100//123
f 149//70 174//70 108//70
f 76//71 74//71 142//71
f 56//72 141//72 121//72
f 38//73 140//73 119//73
f 22//74 20//74 139//74
f 66//75 64//75 138//75
f 46//76 137//76 113//76
f 30//77 28//77 136//77
f 74//78 72//78 135//78
f 54//79 134//79 141//79
f 36//80 133//80 140//80
f 20//81 18//81 132//81
f 62//82 130//82 138//82
f 44//83 129//83 137//83
f 28//84 26//84 128//84
f 72//85 70//85 127//85
f 52//86 126//86 134//86
f 34//87 125//87 133//87
f 16//88 78//88 124//88
f 18//89 16//89 131//89
f 60//90 122//90 130//90
f 42//91 120//91 129//91
f 26//92 24//92 118//92
f 70//93 68//93 116//93
f 50//94 114//94 126//94
f 32//95 112//95 125//95
f 78//96 76//96 123//96
f 58//124 121//124 122//124
f 40//98 119//98 120//98
f 24//99 22//99 117//99
f 68//100 66//100 115//100
f 48//101 113//101 114//101
f 32//102 30//102 111//102
f 123//125 142//125 174//125
f 141//69 173//69 148//69
f 140//68 172//68 147//68
f 117//67 139//67 171//67
f 115//66 138//66 170//66
f 137//65 169//65 144//65
f 111//64 136//64 168//64
f 142//126 135//126 167//126
f 134//122 166//122 173//122
f 133//61 165//61 172//61
f 139//60 132//60 164//60
f 130//59 163//59 170//59
f 129//58 162//58 169//58
f 136//121 128//121 161//121
f 135//108 127//108 160//108
f 126//127 159//127 166//127
f 125//54 158//54 165//54
f 131//53 124//53 157//53
f 132//52 131//52 150//52
f 122//51 156//51 163//51
f 120//50 155//50 162//50
f 128//128 118//128 154//128
f 127//48 116//48 153//48
f 114//47 152//47 159//47
f 124//45 123//45 149//45
f 121//44 148//44 156//44
f 119//43 147//43 155//43
f 118//42 117//42 146//42
f 116//41 115//41 145//41
f 113//40 144//40 152//40
f 175//129 176//129 177//129
f 177//130 178//130 179//130
f 179//131 180//131 177//131
f 151//120 158//120 112//120
f 112//35 111//35 143//35
f 158//120 125//120 112//120
