# Blender v2.79 (sub 0) OBJ File: 'Trees.blend'
# www.blender.org
o LOD0_Stump_Cylinder
v -0.500000 0.000000 0.000000
v -0.500000 3.000000 0.000000
v -0.250000 0.000000 -0.500000
v -0.250000 3.000000 -0.500000
v 0.250000 0.000000 -0.500000
v 0.250000 3.000000 -0.500000
v 0.500000 0.000000 0.000000
v 0.500000 3.000000 0.000000
v 0.250000 0.000000 0.500000
v 0.250000 3.000000 0.500000
v -0.250000 0.000000 0.500000
v -0.250000 3.000000 0.500000
vt 0.607143 1.000000
vt 0.428572 0.000000
vt 0.607143 0.000000
vt 0.428571 1.000000
vt 0.357143 0.000000
vt 0.000000 0.000000
vt 0.107143 1.000000
vt 0.000000 1.000000
vt 0.107143 0.000000
vt 0.285714 1.000000
vt 1.000000 0.237582
vt 0.714286 0.181681
vt 0.857143 0.139754
vt 0.285714 0.000000
vt 0.357143 1.000000
vt 0.714286 1.000000
vt 0.714286 0.000000
vt 0.857143 0.000000
vt 1.000000 0.097828
vt 0.714286 0.041926
vt 0.357143 1.000000
vt 1.000000 0.167705
vt 0.857143 0.279509
vt 0.714286 0.251558
vt 0.357143 0.000000
vt 0.714286 0.111803
vt 1.000000 0.027951
vt 0.857143 0.139754
vn -0.8944 0.0000 -0.4472
vn 0.0000 0.0000 -1.0000
vn 0.8944 0.0000 -0.4472
vn 0.8944 0.0000 0.4472
vn 0.0000 1.0000 -0.0000
vn 0.0000 0.0000 1.0000
vn -0.8944 0.0000 0.4472
vn 0.0000 -1.0000 0.0000
s off
f 2/1/1 3/2/1 1/3/1
f 4/4/2 5/5/2 3/2/2
f 6/6/3 7/7/3 5/8/3
f 8/9/4 9/10/4 7/7/4
f 2/11/5 8/12/5 6/13/5
f 10/14/6 11/15/6 9/10/6
f 12/16/7 1/3/7 11/17/7
f 3/18/8 7/19/8 1/20/8
f 2/1/1 4/4/1 3/2/1
f 4/4/2 6/21/2 5/5/2
f 6/6/3 8/9/3 7/7/3
f 8/9/4 10/14/4 9/10/4
f 6/13/5 4/22/5 2/11/5
f 2/11/5 12/23/5 10/24/5
f 10/24/5 8/12/5 2/11/5
f 10/14/6 12/25/6 11/15/6
f 12/16/7 2/1/7 1/3/7
f 11/26/8 1/20/8 7/19/8
f 3/18/8 5/27/8 7/19/8
f 7/19/8 9/28/8 11/26/8
