# Blender v2.79 (sub 0) OBJ File: 'Trees.blend'
# www.blender.org
o LOD1_Leaves_Cone.002
v -1.261295 2.868345 -0.000000
v 0.000000 13.000000 -0.000000
v -1.165285 2.868345 -0.482677
v -0.891870 2.868345 -0.891870
v -0.482677 2.868345 -1.165285
v 0.000000 2.868345 -1.261295
v 0.482677 2.868345 -1.165285
v 0.891870 2.868345 -0.891870
v 1.165285 2.868345 -0.482677
v 1.261295 2.868345 -0.000000
v 1.165285 2.868345 0.482677
v 0.891871 2.868345 0.891870
v 0.482677 2.868345 1.165285
v -0.000000 2.868345 1.261295
v -0.482677 2.868345 1.165285
v -0.891871 2.868345 0.891870
v -1.165285 2.868345 0.482676
v -0.685062 11.136183 0.000000
v -0.632914 11.136183 -0.262162
v -0.484412 11.136183 -0.484412
v -0.262162 11.136183 -0.632914
v 0.000000 11.136183 -0.685062
v 0.262162 11.136183 -0.632914
v 0.484412 11.136183 -0.484412
v 0.632914 11.136183 -0.262162
v 0.685062 11.136183 -0.000000
v 0.632915 11.136183 0.262162
v 0.484412 11.136183 0.484412
v 0.262162 11.136183 0.632914
v -0.000000 11.136183 0.685062
v -0.262162 11.136183 0.632914
v -0.484412 11.136183 0.484412
v -0.632915 11.136183 0.262161
v -0.489522 10.864838 -0.202766
v -0.374663 10.864838 -0.374663
v -0.202766 10.864838 -0.489522
v 0.000000 10.864838 -0.529854
v 0.202767 10.864838 -0.489522
v 0.374663 10.864838 -0.374663
v 0.489522 10.864838 -0.202766
v 0.529854 10.864838 -0.000000
v 0.489522 10.864838 0.202766
v 0.374664 10.864838 0.374663
v 0.202767 10.864838 0.489522
v -0.000000 10.864838 0.529854
v -0.202767 10.864838 0.489522
v -0.374664 10.864838 0.374663
v -0.489522 10.864838 0.202766
v -0.529854 10.864838 -0.000000
v -1.477356 7.400504 -0.611941
v -1.130719 7.400505 -1.130719
v -0.611941 7.400504 -1.477356
v 0.000000 7.400504 -1.599078
v 0.611941 7.400504 -1.477356
v 1.130719 7.400505 -1.130719
v 1.477356 7.400504 -0.611941
v 1.599079 7.400504 -0.000000
v 1.477356 7.400504 0.611941
v 1.130720 7.400504 1.130719
v 0.611941 7.400504 1.477356
v -0.000000 7.400504 1.599079
v -0.611941 7.400504 1.477356
v -1.130720 7.400504 1.130719
v -1.477356 7.400504 0.611940
v -1.599079 7.400504 0.000000
v -1.020037 7.051445 -0.422513
v -0.780703 7.051446 -0.780703
v -0.422513 7.051445 -1.020037
v 0.000000 7.051445 -1.104080
v 0.422513 7.051445 -1.020037
v 0.780703 7.051446 -0.780703
v 1.020037 7.051445 -0.422513
v 1.104080 7.051445 -0.000000
v 1.020037 7.051445 0.422513
v 0.780703 7.051445 0.780702
v 0.422513 7.051445 1.020037
v -0.000000 7.051445 1.104080
v -0.422513 7.051445 1.020037
v -0.780703 7.051445 0.780702
v -1.020037 7.051445 0.422513
v -1.104080 7.051445 -0.000000
v -2.302648 3.375524 -0.953788
v -1.762371 3.375524 -1.762371
v -0.953788 3.375524 -2.302649
v 0.000000 3.375524 -2.492369
v 0.953789 3.375524 -2.302649
v 1.762371 3.375524 -1.762371
v 2.302648 3.375524 -0.953788
v 2.492369 3.375524 -0.000000
v 2.302649 3.375524 0.953788
v 1.762371 3.375524 1.762371
v 0.953789 3.375524 2.302648
v -0.000000 3.375524 2.492369
v -0.953789 3.375524 2.302648
v -1.762371 3.375524 1.762370
v -2.302649 3.375524 0.953787
v -2.492369 3.375524 0.000000
vn -0.9227 0.3391 -0.1835
vn -0.7822 0.3391 -0.5226
vn -0.5226 0.3391 -0.7822
vn -0.1835 0.3391 -0.9227
vn 0.1835 0.3391 -0.9227
vn 0.5226 0.3391 -0.7822
vn 0.7822 0.3391 -0.5226
vn 0.9227 0.3391 -0.1835
vn 0.9227 0.3391 0.1835
vn 0.7822 0.3391 0.5226
vn 0.5226 0.3391 0.7822
vn 0.1835 0.3391 0.9227
vn -0.1835 0.3391 0.9227
vn -0.5226 0.3391 0.7822
vn -0.7822 0.3391 0.5226
vn -0.9227 0.3391 0.1835
vn 0.0000 -1.0000 -0.0000
vn -0.8554 -0.4893 0.1701
vn -0.7252 -0.4893 0.4845
vn -0.4845 -0.4893 0.7252
vn -0.1701 -0.4893 0.8554
vn 0.1701 -0.4893 0.8554
vn 0.4845 -0.4893 0.7252
vn 0.7252 -0.4893 0.4845
vn 0.8554 -0.4893 0.1701
vn 0.8554 -0.4893 -0.1701
vn 0.7252 -0.4893 -0.4845
vn 0.4845 -0.4893 -0.7252
vn 0.1701 -0.4893 -0.8554
vn -0.1701 -0.4893 -0.8554
vn -0.4845 -0.4893 -0.7252
vn -0.7252 -0.4893 -0.4845
vn -0.8554 -0.4893 -0.1701
vn -0.9387 0.2897 -0.1867
vn -0.7958 0.2897 -0.5317
vn -0.5317 0.2897 -0.7958
vn -0.1867 0.2897 -0.9387
vn 0.1867 0.2897 -0.9387
vn 0.5317 0.2897 -0.7958
vn 0.7958 0.2897 -0.5317
vn 0.9387 0.2897 -0.1867
vn 0.9387 0.2897 0.1867
vn 0.7958 0.2897 0.5317
vn 0.5317 0.2897 0.7958
vn 0.1867 0.2897 0.9387
vn -0.1867 0.2897 0.9387
vn -0.5317 0.2897 0.7958
vn -0.7958 0.2897 0.5317
vn -0.9387 0.2897 0.1867
vn -0.5725 -0.8119 0.1139
vn -0.4854 -0.8119 0.3243
vn -0.3243 -0.8119 0.4854
vn -0.1139 -0.8119 0.5725
vn 0.1139 -0.8119 0.5725
vn 0.3243 -0.8119 0.4854
vn 0.4854 -0.8119 0.3243
vn 0.5725 -0.8119 0.1139
vn 0.5725 -0.8119 -0.1139
vn 0.4854 -0.8119 -0.3243
vn 0.3243 -0.8119 -0.4854
vn 0.1139 -0.8119 -0.5725
vn -0.1139 -0.8119 -0.5725
vn -0.3243 -0.8119 -0.4854
vn -0.4854 -0.8119 -0.3243
vn -0.5725 -0.8119 -0.1139
vn -0.9197 0.3474 -0.1829
vn -0.7797 0.3474 -0.5210
vn -0.5210 0.3474 -0.7797
vn -0.1829 0.3474 -0.9197
vn 0.1829 0.3474 -0.9197
vn 0.5210 0.3474 -0.7797
vn 0.7797 0.3474 -0.5210
vn 0.9197 0.3474 -0.1829
vn 0.9197 0.3474 0.1829
vn 0.7797 0.3474 0.5210
vn 0.5210 0.3474 0.7797
vn 0.1829 0.3474 0.9197
vn -0.1829 0.3474 0.9197
vn -0.5210 0.3474 0.7797
vn -0.7797 0.3474 0.5210
vn -0.9197 0.3474 0.1829
vn -0.3798 -0.9220 0.0756
vn -0.3220 -0.9220 0.2152
vn -0.2152 -0.9220 0.3220
vn -0.0756 -0.9220 0.3798
vn 0.0756 -0.9220 0.3798
vn 0.2152 -0.9220 0.3220
vn 0.3220 -0.9220 0.2152
vn 0.3798 -0.9220 0.0756
vn 0.3798 -0.9220 -0.0756
vn 0.3220 -0.9220 -0.2152
vn 0.2152 -0.9220 -0.3220
vn 0.0756 -0.9220 -0.3798
vn -0.0756 -0.9220 -0.3798
vn -0.2152 -0.9220 -0.3220
vn -0.3220 -0.9220 -0.2152
vn -0.3798 -0.9220 -0.0756
vn 0.4845 -0.4893 -0.7251
vn -0.4845 -0.4893 -0.7251
s off
f 18//1 2//1 19//1
f 19//2 2//2 20//2
f 20//3 2//3 21//3
f 21//4 2//4 22//4
f 22//5 2//5 23//5
f 23//6 2//6 24//6
f 24//7 2//7 25//7
f 25//8 2//8 26//8
f 26//9 2//9 27//9
f 27//10 2//10 28//10
f 28//11 2//11 29//11
f 29//12 2//12 30//12
f 30//13 2//13 31//13
f 31//14 2//14 32//14
f 32//15 2//15 33//15
f 33//16 2//16 18//16
f 9//17 15//17 17//17
f 48//18 18//18 49//18
f 47//19 33//19 48//19
f 46//20 32//20 47//20
f 45//21 31//21 46//21
f 29//22 45//22 44//22
f 28//23 44//23 43//23
f 27//24 43//24 42//24
f 26//25 42//25 41//25
f 40//26 26//26 41//26
f 39//27 25//27 40//27
f 38//28 24//28 39//28
f 37//29 23//29 38//29
f 21//30 37//30 36//30
f 35//31 21//31 36//31
f 19//32 35//32 34//32
f 18//33 34//33 49//33
f 49//34 50//34 65//34
f 34//35 51//35 50//35
f 51//36 36//36 52//36
f 36//37 53//37 52//37
f 37//38 54//38 53//38
f 38//39 55//39 54//39
f 55//40 40//40 56//40
f 40//41 57//41 56//41
f 57//42 42//42 58//42
f 42//43 59//43 58//43
f 43//44 60//44 59//44
f 60//45 45//45 61//45
f 61//46 46//46 62//46
f 62//47 47//47 63//47
f 47//48 64//48 63//48
f 48//49 65//49 64//49
f 80//50 65//50 81//50
f 63//51 80//51 79//51
f 62//52 79//52 78//52
f 77//53 62//53 78//53
f 60//54 77//54 76//54
f 59//55 76//55 75//55
f 58//56 75//56 74//56
f 57//57 74//57 73//57
f 56//58 73//58 72//58
f 71//59 56//59 72//59
f 54//60 71//60 70//60
f 53//61 70//61 69//61
f 52//62 69//62 68//62
f 67//63 52//63 68//63
f 50//64 67//64 66//64
f 65//65 66//65 81//65
f 81//66 82//66 97//66
f 66//67 83//67 82//67
f 67//68 84//68 83//68
f 68//69 85//69 84//69
f 69//70 86//70 85//70
f 70//71 87//71 86//71
f 87//72 72//72 88//72
f 72//73 89//73 88//73
f 73//74 90//74 89//74
f 90//75 75//75 91//75
f 91//76 76//76 92//76
f 92//77 77//77 93//77
f 77//78 94//78 93//78
f 78//79 95//79 94//79
f 79//80 96//80 95//80
f 80//81 97//81 96//81
f 17//82 97//82 1//82
f 95//83 17//83 16//83
f 15//84 95//84 16//84
f 93//85 15//85 14//85
f 92//86 14//86 13//86
f 91//87 13//87 12//87
f 90//88 12//88 11//88
f 10//89 90//89 11//89
f 88//90 10//90 9//90
f 8//91 88//91 9//91
f 86//92 8//92 7//92
f 85//93 7//93 6//93
f 84//94 6//94 5//94
f 83//95 5//95 4//95
f 82//96 4//96 3//96
f 97//97 3//97 1//97
f 17//17 1//17 3//17
f 3//17 4//17 17//17
f 5//17 6//17 7//17
f 7//17 8//17 5//17
f 9//17 10//17 11//17
f 11//17 12//17 13//17
f 13//17 14//17 15//17
f 15//17 16//17 17//17
f 17//17 4//17 5//17
f 5//17 8//17 9//17
f 9//17 11//17 13//17
f 13//17 15//17 9//17
f 17//17 5//17 9//17
f 48//18 33//18 18//18
f 47//19 32//19 33//19
f 46//20 31//20 32//20
f 45//21 30//21 31//21
f 29//22 30//22 45//22
f 28//23 29//23 44//23
f 27//24 28//24 43//24
f 26//25 27//25 42//25
f 40//26 25//26 26//26
f 39//27 24//27 25//27
f 38//98 23//98 24//98
f 37//29 22//29 23//29
f 21//30 22//30 37//30
f 35//99 20//99 21//99
f 19//32 20//32 35//32
f 18//33 19//33 34//33
f 49//34 34//34 50//34
f 34//35 35//35 51//35
f 51//36 35//36 36//36
f 36//37 37//37 53//37
f 37//38 38//38 54//38
f 38//39 39//39 55//39
f 55//40 39//40 40//40
f 40//41 41//41 57//41
f 57//42 41//42 42//42
f 42//43 43//43 59//43
f 43//44 44//44 60//44
f 60//45 44//45 45//45
f 61//46 45//46 46//46
f 62//47 46//47 47//47
f 47//48 48//48 64//48
f 48//49 49//49 65//49
f 80//50 64//50 65//50
f 63//51 64//51 80//51
f 62//52 63//52 79//52
f 77//53 61//53 62//53
f 60//54 61//54 77//54
f 59//55 60//55 76//55
f 58//56 59//56 75//56
f 57//57 58//57 74//57
f 56//58 57//58 73//58
f 71//59 55//59 56//59
f 54//60 55//60 71//60
f 53//61 54//61 70//61
f 52//62 53//62 69//62
f 67//63 51//63 52//63
f 50//64 51//64 67//64
f 65//65 50//65 66//65
f 81//66 66//66 82//66
f 66//67 67//67 83//67
f 67//68 68//68 84//68
f 68//69 69//69 85//69
f 69//70 70//70 86//70
f 70//71 71//71 87//71
f 87//72 71//72 72//72
f 72//73 73//73 89//73
f 73//74 74//74 90//74
f 90//75 74//75 75//75
f 91//76 75//76 76//76
f 92//77 76//77 77//77
f 77//78 78//78 94//78
f 78//79 79//79 95//79
f 79//80 80//80 96//80
f 80//81 81//81 97//81
f 17//82 96//82 97//82
f 95//83 96//83 17//83
f 15//84 94//84 95//84
f 93//85 94//85 15//85
f 92//86 93//86 14//86
f 91//87 92//87 13//87
f 90//88 91//88 12//88
f 10//89 89//89 90//89
f 88//90 89//90 10//90
f 8//91 87//91 88//91
f 86//92 87//92 8//92
f 85//93 86//93 7//93
f 84//94 85//94 6//94
f 83//95 84//95 5//95
f 82//96 83//96 4//96
f 97//97 82//97 3//97
