# Blender v2.79 (sub 0) OBJ File: 'Trees.blend'
# www.blender.org
o LOD2_Stump_Cylinder.002
v -0.500000 0.000000 0.000000
v -0.500000 3.439355 0.000000
v -0.493844 0.000000 -0.078217
v -0.493844 3.439355 -0.078217
v -0.475528 0.000000 -0.154509
v -0.475528 3.439355 -0.154509
v -0.445503 0.000000 -0.226995
v -0.445503 3.439355 -0.226995
v -0.404509 0.000000 -0.293893
v -0.404509 3.439355 -0.293893
v -0.353553 0.000000 -0.353553
v -0.353553 3.439355 -0.353553
v -0.293893 0.000000 -0.404509
v -0.293893 3.439355 -0.404509
v -0.226995 0.000000 -0.445503
v -0.226995 3.439355 -0.445503
v -0.154508 0.000000 -0.475528
v -0.154508 3.439355 -0.475528
v -0.078217 0.000000 -0.493844
v -0.078217 3.439355 -0.493844
v 0.000000 0.000000 -0.500000
v 0.000000 3.439355 -0.500000
v 0.078217 0.000000 -0.493844
v 0.078217 3.439355 -0.493844
v 0.154509 0.000000 -0.475528
v 0.154509 3.439355 -0.475528
v 0.226995 0.000000 -0.445503
v 0.226995 3.439355 -0.445503
v 0.293893 0.000000 -0.404508
v 0.293893 3.439355 -0.404508
v 0.353554 0.000000 -0.353553
v 0.353554 3.439355 -0.353553
v 0.404509 0.000000 -0.293892
v 0.404509 3.439355 -0.293892
v 0.445503 0.000000 -0.226995
v 0.445503 3.439355 -0.226995
v 0.475528 0.000000 -0.154508
v 0.475528 3.439355 -0.154508
v 0.493844 0.000000 -0.078217
v 0.493844 3.439355 -0.078217
v 0.500000 0.000000 0.000000
v 0.500000 3.439355 0.000000
v 0.493844 0.000000 0.078218
v 0.493844 3.439355 0.078218
v 0.475528 0.000000 0.154509
v 0.475528 3.439355 0.154509
v 0.445503 0.000000 0.226996
v 0.445503 3.439355 0.226996
v 0.404508 0.000000 0.293893
v 0.404508 3.439355 0.293893
v 0.353553 0.000000 0.353554
v 0.353553 3.439355 0.353554
v 0.293892 0.000000 0.404509
v 0.293892 3.439355 0.404509
v 0.226995 0.000000 0.445504
v 0.226995 3.439355 0.445504
v 0.154508 0.000000 0.475528
v 0.154508 3.439355 0.475528
v 0.078217 0.000000 0.493844
v 0.078217 3.439355 0.493844
v -0.000001 0.000000 0.500000
v -0.000001 3.439355 0.500000
v -0.078218 0.000000 0.493844
v -0.078218 3.439355 0.493844
v -0.154509 0.000000 0.475528
v -0.154509 3.439355 0.475528
v -0.226996 0.000000 0.445503
v -0.226996 3.439355 0.445503
v -0.293893 0.000000 0.404508
v -0.293893 3.439355 0.404508
v -0.353554 0.000000 0.353553
v -0.353554 3.439355 0.353553
v -0.404509 0.000000 0.293892
v -0.404509 3.439355 0.293892
v -0.445504 0.000000 0.226994
v -0.445504 3.439355 0.226994
v -0.475529 0.000000 0.154508
v -0.475529 3.439355 0.154508
v -0.493844 0.000000 0.078216
v -0.493844 3.439355 0.078216
vt 0.109896 0.000000
vt 0.130201 1.000000
vt 0.109897 1.000000
vt 0.130200 0.000000
vt 0.149752 1.000000
vt 0.149751 0.000000
vt 0.168068 1.000000
vt 0.168068 0.000000
vt 0.184699 1.000000
vt 0.184699 0.000000
vt 0.199235 1.000000
vt 0.383935 1.000000
vt 0.369398 0.000000
vt 0.383934 0.000000
vt 0.369398 1.000000
vt 0.352767 0.000000
vt 0.352767 1.000000
vt 0.334451 0.000000
vt 0.334451 1.000000
vt 0.314900 0.000000
vt 0.314900 1.000000
vt 0.294595 0.000000
vt 0.294596 1.000000
vt 0.274038 0.000000
vt 0.274038 1.000000
vt 0.253734 0.000000
vt 0.253734 1.000000
vt 0.234183 0.000000
vt 0.234183 1.000000
vt 0.215867 0.000000
vt 0.215867 1.000000
vt 0.199235 0.000000
vt 0.568633 1.000000
vt 0.554097 0.000000
vt 0.568633 0.000000
vt 0.554097 1.000000
vt 0.537466 0.000000
vt 0.537466 1.000000
vt 0.519150 0.000000
vt 0.519150 1.000000
vt 0.499599 0.000000
vt 0.499599 1.000000
vt 0.479295 0.000000
vt 0.479295 1.000000
vt 0.458737 0.000000
vt 0.458737 1.000000
vt 0.438433 0.000000
vt 0.438433 1.000000
vt 0.418882 0.000000
vt 0.418882 1.000000
vt 0.400566 0.000000
vt 0.400566 1.000000
vt 0.383935 0.000000
vt 0.738796 1.000000
vt 0.722165 0.000000
vt 0.738796 0.000000
vt 0.722165 1.000000
vt 0.703849 0.000000
vt 0.703849 1.000000
vt 0.684298 0.000000
vt 0.684298 1.000000
vt 0.663993 0.000000
vt 0.663994 1.000000
vt 0.643436 0.000000
vt 0.643436 1.000000
vt 0.623132 0.000000
vt 0.623132 1.000000
vt 0.603581 0.000000
vt 0.603581 1.000000
vt 0.585265 0.000000
vt 0.585265 1.000000
vt 0.568633 0.000000
vt 0.000000 0.000000
vt 0.014537 1.000000
vt 0.000001 1.000000
vt 0.014536 0.000000
vt 0.031168 1.000000
vt 0.031167 0.000000
vt 0.049485 1.000000
vt 0.049484 0.000000
vt 0.069036 1.000000
vt 0.996784 0.076898
vt 0.748365 0.086225
vt 0.937848 0.009017
vt 0.069035 0.000000
vt 0.089340 1.000000
vt 0.089339 0.000000
vt 0.742012 0.172332
vt 0.996784 0.201512
vt 0.954480 0.234447
vt 0.199235 0.000000
vt 0.199236 1.000000
vt 0.383935 1.000000
vt 0.568634 1.000000
vt 0.784317 0.014782
vt 0.800948 0.009017
vt 0.819265 0.004565
vt 0.838816 0.001534
vt 0.859120 0.000000
vt 0.879677 0.000000
vt 0.899981 0.001534
vt 0.919532 0.004565
vt 0.954480 0.014782
vt 0.990432 0.038390
vt 0.969016 0.021717
vt 0.981099 0.029651
vt 0.996784 0.047717
vt 1.000000 0.057404
vt 1.000000 0.067211
vt 0.990432 0.086225
vt 0.981099 0.094963
vt 0.969016 0.102898
vt 0.954480 0.109833
vt 0.937848 0.115597
vt 0.879677 0.124615
vt 0.919532 0.120050
vt 0.899981 0.123080
vt 0.859120 0.124615
vt 0.838815 0.123080
vt 0.819264 0.120050
vt 0.800948 0.115597
vt 0.784317 0.109833
vt 0.769781 0.102898
vt 0.757697 0.094963
vt 0.742012 0.076898
vt 0.742012 0.047717
vt 0.738796 0.067211
vt 0.738796 0.057404
vt 0.748365 0.038390
vt 0.757698 0.029651
vt 0.769781 0.021717
vt 0.937849 0.240212
vt 0.879677 0.249229
vt 0.919532 0.244664
vt 0.899981 0.247695
vt 0.859120 0.249229
vt 0.838816 0.247695
vt 0.819265 0.244664
vt 0.800948 0.240212
vt 0.784317 0.234447
vt 0.769781 0.227513
vt 0.757698 0.219578
vt 0.748365 0.210840
vt 0.742012 0.201512
vt 0.738796 0.191826
vt 0.738796 0.182018
vt 0.748365 0.163004
vt 0.757697 0.154266
vt 0.769781 0.146332
vt 0.784317 0.139397
vt 0.800948 0.133632
vt 0.819264 0.129180
vt 0.838815 0.126149
vt 0.859120 0.124615
vt 0.879677 0.124615
vt 0.899981 0.126149
vt 0.919532 0.129180
vt 0.937848 0.133632
vt 0.954480 0.139397
vt 0.969016 0.146331
vt 0.981099 0.154266
vt 0.990432 0.163004
vt 0.996784 0.172332
vt 1.000000 0.182018
vt 1.000000 0.191826
vt 0.990432 0.210840
vt 0.981099 0.219578
vt 0.969016 0.227512
vn -0.7239 0.6898 0.0000
vn -0.7150 -0.6898 -0.1132
vn -0.7239 -0.6898 0.0000
vn -0.7150 0.6898 -0.1132
vn -0.6885 -0.6898 -0.2237
vn -0.6885 0.6898 -0.2237
vn -0.6450 -0.6898 -0.3287
vn -0.6450 0.6898 -0.3287
vn -0.5857 -0.6898 -0.4255
vn -0.5857 0.6898 -0.4255
vn -0.5119 -0.6898 -0.5119
vn -0.5119 0.6898 -0.5119
vn -0.4255 -0.6898 -0.5857
vn -0.4255 0.6898 -0.5857
vn -0.3287 -0.6898 -0.6450
vn -0.3287 0.6898 -0.6450
vn -0.2237 -0.6898 -0.6885
vn -0.2237 0.6898 -0.6885
vn -0.1132 -0.6898 -0.7150
vn -0.1132 0.6898 -0.7150
vn 0.0000 -0.6898 -0.7239
vn 0.0000 0.6898 -0.7239
vn 0.1132 -0.6898 -0.7150
vn 0.1132 0.6898 -0.7150
vn 0.2237 -0.6898 -0.6885
vn 0.2237 0.6898 -0.6885
vn 0.3287 -0.6898 -0.6450
vn 0.3287 0.6898 -0.6450
vn 0.4255 -0.6898 -0.5857
vn 0.4255 0.6898 -0.5857
vn 0.5119 -0.6898 -0.5119
vn 0.5119 0.6898 -0.5119
vn 0.5857 -0.6898 -0.4255
vn 0.5857 0.6898 -0.4255
vn 0.6450 -0.6898 -0.3287
vn 0.6450 0.6898 -0.3287
vn 0.6885 -0.6898 -0.2237
vn 0.6885 0.6898 -0.2237
vn 0.7150 -0.6898 -0.1132
vn 0.7150 0.6898 -0.1132
vn 0.7239 -0.6898 0.0000
vn 0.7239 0.6898 0.0000
vn 0.7150 -0.6898 0.1132
vn 0.7150 0.6898 0.1132
vn 0.6885 -0.6898 0.2237
vn 0.6885 0.6898 0.2237
vn 0.6450 -0.6898 0.3287
vn 0.6450 0.6898 0.3287
vn 0.5857 -0.6898 0.4255
vn 0.5857 0.6898 0.4255
vn 0.5119 -0.6898 0.5119
vn 0.5119 0.6899 0.5119
vn 0.4255 -0.6898 0.5857
vn 0.4255 0.6898 0.5857
vn 0.3287 -0.6898 0.6450
vn 0.3287 0.6898 0.6450
vn 0.2237 -0.6898 0.6885
vn 0.2237 0.6898 0.6885
vn 0.1132 -0.6898 0.7150
vn 0.1132 0.6898 0.7150
vn 0.0000 -0.6898 0.7239
vn 0.0000 0.6898 0.7239
vn -0.1132 -0.6898 0.7150
vn -0.1132 0.6898 0.7150
vn -0.2237 -0.6898 0.6885
vn -0.2237 0.6898 0.6885
vn -0.3287 -0.6898 0.6450
vn -0.3287 0.6898 0.6450
vn -0.4255 -0.6898 0.5857
vn -0.4255 0.6898 0.5857
vn -0.5119 -0.6898 0.5119
vn -0.5119 0.6898 0.5119
vn -0.5857 -0.6898 0.4255
vn -0.5857 0.6898 0.4255
vn -0.6450 -0.6898 0.3287
vn -0.6450 0.6898 0.3287
vn -0.6885 -0.6898 0.2237
vn -0.6885 0.6898 0.2237
vn -0.7150 -0.6898 0.1132
vn -0.7150 0.6898 0.1132
s 1
f 2/1/1 3/2/2 1/3/3
f 4/4/4 5/5/5 3/2/2
f 6/6/6 7/7/7 5/5/5
f 8/8/8 9/9/9 7/7/7
f 10/10/10 11/11/11 9/9/9
f 12/12/12 13/13/13 11/14/11
f 14/15/14 15/16/15 13/13/13
f 16/17/16 17/18/17 15/16/15
f 18/19/18 19/20/19 17/18/17
f 20/21/20 21/22/21 19/20/19
f 22/23/22 23/24/23 21/22/21
f 24/25/24 25/26/25 23/24/23
f 26/27/26 27/28/27 25/26/25
f 28/29/28 29/30/29 27/28/27
f 30/31/30 31/32/31 29/30/29
f 32/33/32 33/34/33 31/35/31
f 34/36/34 35/37/35 33/34/33
f 36/38/36 37/39/37 35/37/35
f 38/40/38 39/41/39 37/39/37
f 40/42/40 41/43/41 39/41/39
f 42/44/42 43/45/43 41/43/41
f 44/46/44 45/47/45 43/45/43
f 46/48/46 47/49/47 45/47/45
f 48/50/48 49/51/49 47/49/47
f 50/52/50 51/53/51 49/51/49
f 52/54/52 53/55/53 51/56/51
f 54/57/54 55/58/55 53/55/53
f 56/59/56 57/60/57 55/58/55
f 58/61/58 59/62/59 57/60/57
f 60/63/60 61/64/61 59/62/59
f 62/65/62 63/66/63 61/64/61
f 64/67/64 65/68/65 63/66/63
f 66/69/66 67/70/67 65/68/65
f 68/71/68 69/72/69 67/70/67
f 70/73/70 71/74/71 69/75/69
f 72/76/72 73/77/73 71/74/71
f 74/78/74 75/79/75 73/77/73
f 76/80/76 77/81/77 75/79/75
f 54/82/54 22/83/22 70/84/70
f 78/85/78 79/86/79 77/81/77
f 80/87/80 1/3/3 79/86/79
f 31/88/31 71/89/71 79/90/79
f 2/1/1 4/4/4 3/2/2
f 4/4/4 6/6/6 5/5/5
f 6/6/6 8/8/8 7/7/7
f 8/8/8 10/10/10 9/9/9
f 10/10/10 12/91/12 11/11/11
f 12/12/12 14/15/14 13/13/13
f 14/15/14 16/17/16 15/16/15
f 16/17/16 18/19/18 17/18/17
f 18/19/18 20/21/20 19/20/19
f 20/21/20 22/23/22 21/22/21
f 22/23/22 24/25/24 23/24/23
f 24/25/24 26/27/26 25/26/25
f 26/27/26 28/29/28 27/28/27
f 28/29/28 30/31/30 29/30/29
f 30/31/30 32/92/32 31/32/31
f 32/33/32 34/36/34 33/34/33
f 34/36/34 36/38/36 35/37/35
f 36/38/36 38/40/38 37/39/37
f 38/40/38 40/42/40 39/41/39
f 40/42/40 42/44/42 41/43/41
f 42/44/42 44/46/44 43/45/43
f 44/46/44 46/48/46 45/47/45
f 46/48/46 48/50/48 47/49/47
f 48/50/48 50/52/50 49/51/49
f 50/52/50 52/93/52 51/53/51
f 52/54/52 54/57/54 53/55/53
f 54/57/54 56/59/56 55/58/55
f 56/59/56 58/61/58 57/60/57
f 58/61/58 60/63/60 59/62/59
f 60/63/60 62/65/62 61/64/61
f 62/65/62 64/67/64 63/66/63
f 64/67/64 66/69/66 65/68/65
f 66/69/66 68/71/68 67/70/67
f 68/71/68 70/94/70 69/72/69
f 70/73/70 72/76/72 71/74/71
f 72/76/72 74/78/74 73/77/73
f 74/78/74 76/80/76 75/79/75
f 76/80/76 78/85/78 77/81/77
f 6/95/6 4/96/4 2/97/1
f 2/97/1 80/98/80 78/99/78
f 78/99/78 76/100/76 74/101/74
f 74/101/74 72/102/72 78/99/78
f 70/84/70 68/103/68 62/104/62
f 66/105/66 64/106/64 62/104/62
f 62/104/62 60/107/60 58/108/58
f 58/108/58 56/109/56 62/104/62
f 54/82/54 52/110/52 50/111/50
f 50/111/50 48/112/48 54/82/54
f 46/113/46 44/114/44 38/115/38
f 42/116/42 40/117/40 38/115/38
f 38/115/38 36/118/36 34/119/34
f 34/119/34 32/120/32 30/121/30
f 30/121/30 28/122/28 22/83/22
f 26/123/26 24/124/24 22/83/22
f 22/83/22 20/125/20 14/126/14
f 18/127/18 16/128/16 14/126/14
f 14/126/14 12/129/12 6/95/6
f 10/130/10 8/131/8 6/95/6
f 6/95/6 2/97/1 78/99/78
f 78/99/78 72/102/72 70/84/70
f 68/103/68 66/105/66 62/104/62
f 62/104/62 56/109/56 54/82/54
f 54/82/54 48/112/48 46/113/46
f 44/114/44 42/116/42 38/115/38
f 38/115/38 34/119/34 22/83/22
f 28/122/28 26/123/26 22/83/22
f 20/125/20 18/127/18 14/126/14
f 12/129/12 10/130/10 6/95/6
f 6/95/6 78/99/78 70/84/70
f 70/84/70 62/104/62 54/82/54
f 54/82/54 46/113/46 38/115/38
f 34/119/34 30/121/30 22/83/22
f 22/83/22 14/126/14 6/95/6
f 6/95/6 70/84/70 22/83/22
f 54/82/54 38/115/38 22/83/22
f 78/85/78 80/87/80 79/86/79
f 80/87/80 2/1/1 1/3/3
f 79/90/79 1/132/3 7/133/7
f 3/134/2 5/135/5 7/133/7
f 7/133/7 9/136/9 11/137/11
f 11/137/11 13/138/13 15/139/15
f 15/139/15 17/140/17 19/141/19
f 19/141/19 21/142/21 23/143/23
f 23/143/23 25/144/25 27/145/27
f 27/145/27 29/146/29 31/88/31
f 31/88/31 33/147/33 35/148/35
f 35/148/35 37/149/37 31/88/31
f 39/150/39 41/151/41 43/152/43
f 43/152/43 45/153/45 47/154/47
f 47/154/47 49/155/49 51/156/51
f 51/156/51 53/157/53 55/158/55
f 55/158/55 57/159/57 59/160/59
f 59/160/59 61/161/61 63/162/63
f 63/162/63 65/163/65 71/89/71
f 67/164/67 69/165/69 71/89/71
f 71/89/71 73/166/73 75/167/75
f 75/167/75 77/168/77 79/90/79
f 1/132/3 3/134/2 7/133/7
f 7/133/7 11/137/11 79/90/79
f 15/139/15 19/141/19 23/143/23
f 23/143/23 27/145/27 31/88/31
f 31/88/31 37/149/37 39/150/39
f 39/150/39 43/152/43 47/154/47
f 47/154/47 51/156/51 55/158/55
f 55/158/55 59/160/59 63/162/63
f 65/163/65 67/164/67 71/89/71
f 71/89/71 75/167/75 79/90/79
f 79/90/79 11/137/11 15/139/15
f 15/139/15 23/143/23 79/90/79
f 31/88/31 39/150/39 63/162/63
f 47/154/47 55/158/55 63/162/63
f 63/162/63 71/89/71 31/88/31
f 79/90/79 23/143/23 31/88/31
f 39/150/39 47/154/47 63/162/63
