# Blender v2.79 (sub 0) OBJ File: 'Castle.blend'
# www.blender.org
o Castle_Bridge_Cube.008
v 4.999999 0.000000 -18.115593
v 4.999999 0.400000 -18.115593
v -4.996807 0.000000 -18.115593
v -4.996807 0.400000 -18.115593
v 4.999999 0.000000 -30.938919
v 4.999999 0.400000 -30.938919
v -4.996807 0.000000 -30.938919
v -4.996807 0.400000 -30.938919
vt 0.849263 1.000000
vt 0.924631 0.000000
vt 0.924631 1.000000
vt 0.924632 0.380522
vt 1.000000 0.000000
vt 1.000000 0.380522
vt 0.773894 1.000000
vt 0.849263 0.000000
vt 0.849263 1.000000
vt 1.000000 0.380522
vt 0.924632 0.761045
vt 0.924631 0.380522
vt 0.386947 1.000000
vt 0.773894 0.000000
vt 0.773894 1.000000
vt 0.000000 1.000000
vt 0.386947 0.000000
vt 0.386947 1.000000
vt 0.849263 0.000000
vt 0.924631 0.000000
vt 0.773894 0.000000
vt 1.000000 0.761045
vt 0.386947 0.000000
vt 0.000000 0.000000
vn 0.0000 0.0000 1.0000
vn -1.0000 0.0000 0.0000
vn 0.0000 0.0000 -1.0000
vn 1.0000 0.0000 0.0000
vn 0.0000 -1.0000 0.0000
vn 0.0000 1.0000 0.0000
s off
f 2/1/1 3/2/1 1/3/1
f 4/4/2 7/5/2 3/6/2
f 8/7/3 5/8/3 7/9/3
f 6/10/4 1/11/4 5/12/4
f 7/13/5 1/14/5 3/15/5
f 4/16/6 6/17/6 8/18/6
f 2/1/1 4/19/1 3/2/1
f 4/4/2 8/20/2 7/5/2
f 8/7/3 6/21/3 5/8/3
f 6/10/4 2/22/4 1/11/4
f 7/13/5 5/23/5 1/14/5
f 4/16/6 2/24/6 6/17/6
